<svg xmlns="http://www.w3.org/2000/svg" xmlns:xlink="http://www.w3.org/1999/xlink" width="383.846" height="58.563" viewBox="0 0 383.846 58.563"><defs><style>.a{fill:#fff;}.b{clip-path:url(#a);}</style><clipPath id="a"><rect class="a" width="248.002" height="58.563"/></clipPath></defs><g transform="translate(-1154.432 4.085)"><g transform="translate(1154.432 9.975)"><path class="a" d="M5.5,32.943c-.663,0-1.364.039-2.1.078s-1.364.078-1.91.078a2.8,2.8,0,0,1-.507-.039.354.354,0,0,1-.312-.39.8.8,0,0,1,.312-.546A2.858,2.858,0,0,1,2.3,31.7a4.533,4.533,0,0,0,.7-.156,1.656,1.656,0,0,0,.663-.39,2.058,2.058,0,0,0,.468-.819,4.957,4.957,0,0,0,.195-1.52V7.917a.55.55,0,0,0-.312-.468,2.046,2.046,0,0,0-.78-.234A8.247,8.247,0,0,1,2.3,7.137,7.829,7.829,0,0,1,1.325,7.1C.819,7.02.468,6.981.273,6.942S0,6.747,0,6.514a.558.558,0,0,1,.195-.429.889.889,0,0,1,.468-.234,2.632,2.632,0,0,1,.546-.078c.195,0,.351-.039.507-.039H5.769c1.091,0,2.183-.039,3.313-.117S11.46,5.5,12.9,5.5a24.017,24.017,0,0,1,6.588.9,14.829,14.829,0,0,1,5.34,2.768,13.247,13.247,0,0,1,3.625,4.795,16.386,16.386,0,0,1,1.325,6.9,10.349,10.349,0,0,1-1.091,4.717,12.461,12.461,0,0,1-2.963,3.859,14.773,14.773,0,0,1-4.366,2.612,15.241,15.241,0,0,1-5.34.936H5.5m2.69-5.574A3.593,3.593,0,0,0,8.693,29.4a4.4,4.4,0,0,0,1.286,1.4,4.894,4.894,0,0,0,1.832.819,7.61,7.61,0,0,0,2.1.273,9.156,9.156,0,0,0,2.1-.273,16.913,16.913,0,0,0,2.495-.819,12.453,12.453,0,0,0,2.573-1.481,11.037,11.037,0,0,0,3.937-5.34,11.583,11.583,0,0,0,.624-4.015,12.441,12.441,0,0,0-2.3-7.445,11.664,11.664,0,0,0-2.456-2.534A18.988,18.988,0,0,0,17.97,8.19a15.134,15.134,0,0,0-3.079-1.052,21.441,21.441,0,0,0-2.963-.273,14.872,14.872,0,0,0-2.144.117,3.224,3.224,0,0,0-1.13.351.716.716,0,0,0-.429.468,2.683,2.683,0,0,0-.078.507v19.1Z" transform="translate(0 -3.356)"/><path class="a" d="M87.4,50.358a7.17,7.17,0,0,1-2.612-.429,3.9,3.9,0,0,1-1.637-1.286,6.141,6.141,0,0,1-.858-1.988,13.142,13.142,0,0,1-.234-2.573c0-.663,0-1.442.039-2.261,0-.819.039-1.676.039-2.495,0-.858,0-1.676.039-2.495,0-.819.039-1.559.039-2.183a.6.6,0,0,0-.429-.624c-.312-.078-.585-.156-.858-.234a7.74,7.74,0,0,1-1.052-.351.362.362,0,0,1-.273-.351.341.341,0,0,1,.312-.351,4.743,4.743,0,0,1,.819-.039,8.148,8.148,0,0,1,.975.039,7.828,7.828,0,0,0,.975.039,8.148,8.148,0,0,0,.975-.039,8.148,8.148,0,0,1,.975-.039c.312,0,.468.078.546.195a1.333,1.333,0,0,1,.117.663c0,1.988,0,3.976-.039,5.925-.039,1.988-.039,3.937-.039,5.925a2.463,2.463,0,0,0,.936,2.1,3.964,3.964,0,0,0,2.573.741,9.614,9.614,0,0,0,2.924-.351,3.915,3.915,0,0,0,1.559-.9,2.663,2.663,0,0,0,.7-1.247,5.64,5.64,0,0,0,.156-1.364c0-1.6,0-3.2.039-4.756s.039-3.157.039-4.756a.734.734,0,0,0-.078-.312.713.713,0,0,0-.312-.234,4.142,4.142,0,0,0-.7-.195c-.312-.078-.7-.195-1.247-.351-.195-.078-.429-.156-.78-.273s-.507-.273-.507-.429.117-.234.312-.273a3.433,3.433,0,0,1,.663-.078,10.585,10.585,0,0,1,1.13.039,10.583,10.583,0,0,0,1.13.039c.429,0,.9,0,1.325-.039s.858-.039,1.325-.039a1.309,1.309,0,0,1,.585.156c.234.117.351.351.351.78,0,2.261-.039,4.483-.078,6.744-.039,2.222-.078,4.483-.078,6.744,0,.468.156.78.429.9a1.906,1.906,0,0,0,.741.195c.858,0,1.442,0,1.793.039s.507.156.507.39c0,.195-.078.312-.195.351a2.684,2.684,0,0,1-.7.195c-1.559.234-2.807.468-3.7.624a10.185,10.185,0,0,1-1.676.273.309.309,0,0,1-.312-.195,1.906,1.906,0,0,1-.039-.507V48.409c0-.351-.117-.546-.312-.546a1.233,1.233,0,0,0-.741.39,7.99,7.99,0,0,1-1.286.9,8.913,8.913,0,0,1-1.832.9,12.08,12.08,0,0,1-2.456.312" transform="translate(-48.571 -19.953)"/><path class="a" d="M138.079,4.288a1.767,1.767,0,0,0-.351-1.247,2.425,2.425,0,0,0-.741-.546,3.928,3.928,0,0,0-.741-.234c-.234-.078-.351-.195-.351-.39a.375.375,0,0,1,.234-.351c.156-.078.39-.156.7-.273l3.04-1.169A1.139,1.139,0,0,1,140.223,0h.39a.476.476,0,0,1,.351.156c.117.117.156.312.156.663V19.1c0,.468.117.7.39.7a2.938,2.938,0,0,0,.7-.273c.39-.195.858-.429,1.4-.741s1.091-.663,1.715-1.052,1.169-.741,1.676-1.13a9.307,9.307,0,0,0,1.247-.975c.351-.273.507-.507.507-.663a.834.834,0,0,0-.273-.7,1.92,1.92,0,0,0-.585-.39c-.195-.117-.39-.195-.585-.312a.455.455,0,0,1-.273-.429.4.4,0,0,1,.195-.312.786.786,0,0,1,.429-.117c.468,0,1.014,0,1.637.039s1.208.039,1.793.039c.546,0,1.13,0,1.754-.039s1.13-.039,1.559-.039a3.009,3.009,0,0,1,.585.078.393.393,0,0,1,.273.429.471.471,0,0,1-.234.351,2.037,2.037,0,0,1-.585.273c-.234.078-.468.156-.741.234l-.585.195c-.312.156-.936.468-1.871,1.014-.936.507-1.91,1.091-2.885,1.676s-1.871,1.13-2.651,1.676c-.78.507-1.169.819-1.169.975a.755.755,0,0,0,.351.624l7.64,6.978a4.61,4.61,0,0,0,1.325.936c.429.195.819.39,1.13.507a5.042,5.042,0,0,1,.78.351.362.362,0,0,1,.273.351c0,.312-.39.429-1.169.429-.468,0-.975-.039-1.559-.078-.546-.039-1.169-.078-1.871-.078-.585,0-1.169.039-1.676.078-.546.039-1.052.078-1.6.078a5.546,5.546,0,0,1-1.014-.078.354.354,0,0,1-.312-.39.447.447,0,0,1,.351-.429,4.309,4.309,0,0,1,.936-.195,1.32,1.32,0,0,0,.585-.234.474.474,0,0,0,.234-.39c0-.156-.156-.39-.507-.7l-6.7-6.354c-.195-.195-.312-.273-.39-.273-.195,0-.312.078-.312.234v6.315a1.314,1.314,0,0,0,.351,1.052,1.967,1.967,0,0,0,.663.39,6.171,6.171,0,0,0,.9.234c.234.039.39.156.39.39q0,.292-.351.351a2.159,2.159,0,0,1-.7.078c-.546,0-1.052-.039-1.52-.078s-.975-.078-1.481-.078c-.546,0-1.091.039-1.715.078s-1.091.078-1.481.078c-.156,0-.351-.039-.663-.078-.273-.039-.429-.156-.429-.39a.448.448,0,0,1,.234-.429,2.055,2.055,0,0,1,.585-.195c.312-.078.585-.156.858-.234a2.926,2.926,0,0,0,.7-.273,1.3,1.3,0,0,0,.468-.546A2.488,2.488,0,0,0,138,26.585V4.288" transform="translate(-82.376 0)"/><path class="a" d="M191.435,38.089a2.444,2.444,0,0,0-.078.624v.936a16.237,16.237,0,0,0,.234,2.768,5.686,5.686,0,0,0,.936,2.339,5.178,5.178,0,0,0,1.949,1.676,7.39,7.39,0,0,0,3.313.624,5.4,5.4,0,0,0,1.988-.273,4.577,4.577,0,0,0,1.091-.585,4.674,4.674,0,0,0,.624-.624A.614.614,0,0,1,202,45.3c.273,0,.39.117.39.351a2.564,2.564,0,0,1-.351.7,4.766,4.766,0,0,1-1.169,1.208,8.957,8.957,0,0,1-2.027,1.169,7.475,7.475,0,0,1-2.963.507,7.005,7.005,0,0,1-5.691-2.417,10.065,10.065,0,0,1-1.988-6.588A10.74,10.74,0,0,1,188.707,37a9.59,9.59,0,0,1,1.481-3.041,8.711,8.711,0,0,1,2.495-2.261,7.094,7.094,0,0,1,3.586-.9,6.574,6.574,0,0,1,3.2.7,7.118,7.118,0,0,1,2.1,1.715,6.51,6.51,0,0,1,1.169,2.066,5.775,5.775,0,0,1,.351,1.793c0,.429-.039.7-.156.819a1.052,1.052,0,0,1-.741.195H191.435m4.21-1.364a18.514,18.514,0,0,0,2.339-.117,3.565,3.565,0,0,0,1.364-.39,1.547,1.547,0,0,0,.663-.663,2.639,2.639,0,0,0,.156-1.014,2.472,2.472,0,0,0-.936-1.949,3.6,3.6,0,0,0-2.339-.78,4.255,4.255,0,0,0-2.144.507,6.379,6.379,0,0,0-1.6,1.208,5.9,5.9,0,0,0-1.014,1.481,3.2,3.2,0,0,0-.351,1.286.3.3,0,0,0,.078.195,1.167,1.167,0,0,0,.429.117c.234.039.624.039,1.169.078C193.969,36.725,194.71,36.725,195.645,36.725Z" transform="translate(-114.838 -18.794)"/></g><g class="b" transform="translate(1290.276 -4.085)"><path class="a" d="M38.327,10.194h8.364c8,0,13.6,2.5,13.6,11.394,0,8.6-5.763,11.592-13.6,11.592H38.327Zm6.125,18.441h2.37c4.578,0,7.146-2.37,7.146-6.946s-2.667-6.95-7.146-6.95h-2.37Z" transform="translate(31.772 8.45)"/><path class="a" d="M69.91,30.538h-5.4V27.376h-.066a6.5,6.5,0,0,1-6.257,3.557c-4.677,0-6.553-3.294-6.553-6.849v-10.7h5.928v8.3c0,3.226,1.119,4.313,2.732,4.313,2.438,0,3.689-1.679,3.689-5.366V13.381H69.91Z" transform="translate(42.802 11.092)"/><path class="a" d="M63.553,9.258H69.48V24.011h.066l4.94-7.212h6.487l-5.961,7.872,6.454,9.286H74.289l-4.742-8.5H69.48v8.5H63.553Z" transform="translate(52.683 7.675)"/><path class="a" d="M79.2,23.868c.329,2.372,2.14,3.294,5.037,3.294a11.1,11.1,0,0,0,5.236-1.319v4.183a17.185,17.185,0,0,1-6.29,1.086c-5.662,0-9.977-3.325-9.977-8.989s3.854-8.958,9.187-8.958c6.356,0,8.662,4.512,8.662,9.617v1.086Zm6.52-3.358c0-1.977-.922-3.59-3.294-3.59-2.14,0-3.16,1.613-3.292,3.59Z" transform="translate(60.683 10.913)"/><path class="a" d="M85.249,10.194h3.294v9.617h11V10.194h3.294V33.181H99.541V22.708h-11V33.181H85.249Z" transform="translate(70.669 8.451)"/><path class="a" d="M110.93,29.862a12.863,12.863,0,0,1-5.3,1.085c-5.961,0-8.693-3.621-8.693-9.086,0-4.975,3.128-8.5,7.87-8.5,5.6,0,7.409,4.084,7.409,9.483H100.229a5.494,5.494,0,0,0,5.531,5.6,9.906,9.906,0,0,0,5.17-1.681Zm-2.008-9.32c0-2.568-1.514-4.677-4.183-4.677-3.029,0-4.28,2.5-4.51,4.677Z" transform="translate(80.355 11.077)"/><path class="a" d="M108.407,14.943a10.692,10.692,0,0,1,5.531-1.58c4.808,0,6.751,2.37,6.751,6.948v6.948a26.429,26.429,0,0,0,.134,3.294h-2.9V28.381h-.066a6.232,6.232,0,0,1-5.2,2.568c-3.621,0-6.158-1.58-6.158-5.236,0-4.216,4.611-5.533,7.806-5.533,1.218,0,2.074,0,3.292.066,0-2.9-1.053-4.379-4.15-4.379a7.9,7.9,0,0,0-4.874,1.712Zm9.187,7.607c-.658,0-1.317-.064-1.975-.064-1.681,0-5.829.263-5.829,3.226a2.959,2.959,0,0,0,3.128,2.734c3.063,0,4.677-1.909,4.677-4.413Z" transform="translate(88.281 11.077)"/><rect class="a" width="3.095" height="24.698" transform="translate(213.226 16.933)"/><path class="a" d="M130.937,18.291H126.49v9.187c0,1.944,1.187,3,2.6,3a3.823,3.823,0,0,0,2.107-.593v2.634a9.627,9.627,0,0,1-2.634.461c-3.2,0-5.17-1.514-5.17-4.872V18.291h-3.788v-2.5H123.4V11.9l3.095-.988v4.874h4.446Z" transform="translate(99.151 9.048)"/><path class="a" d="M127.477,9.258h3.095V19.566h.068a6.158,6.158,0,0,1,5.4-2.8c4.346,0,6.29,2.7,6.29,7.212v9.979h-3.1V25.263c0-3.919-.856-5.831-3.557-5.994-3.523,0-5.1,2.831-5.1,6.915v7.771h-3.095Z" transform="translate(105.674 7.675)"/><path class="a" d="M58.465,58.563H0V0H58.465ZM.951,57.612H57.515V.949H.951Z" transform="translate(0 0)"/><path class="a" d="M33.224,35.985A35.747,35.747,0,0,1,23,40.625v0c.437-.21,5.181-2.518,7.288-4.587A12.29,12.29,0,0,0,32.637,32.4a9.716,9.716,0,0,1-2.923,1.957A61.858,61.858,0,0,1,23,37.166v-.005a20.811,20.811,0,0,0,4.872-3.691,12.256,12.256,0,0,0,2.266-3.2c-2.008,1.6-6.7,3.329-7.138,3.49v-.007a15.718,15.718,0,0,0,3.448-2.914,5.292,5.292,0,0,0,1.319-2.645A10.238,10.238,0,0,1,23,30.306v-.018a5.359,5.359,0,0,0,2.275-4.212c-1.734,1.582-3.224,1.022-3.925.4a2.95,2.95,0,0,1-.675-1.952V6.191H18.347V7.9h-3.1V6.191H12.926V7.9h-3.1V6.191H7.5V27.237a14.866,14.866,0,0,0,5.518,10.506A61.135,61.135,0,0,0,23,43.9c.507-.251,6.31-3.118,8.839-5.364a11.391,11.391,0,0,0,3.276-4.051,19.984,19.984,0,0,1-1.891,1.5" transform="translate(6.214 5.132)"/><path class="a" d="M21.008,21.949V7.147H18.879V24.789a9.328,9.328,0,0,1-.3,2.61c2.793-1.809,2.429-5.45,2.429-5.45" transform="translate(15.401 5.925)"/><path class="a" d="M22.636,24.473V6.193H20.51V27.111a8.145,8.145,0,0,1-.627,3.144,8.11,8.11,0,0,0,2.753-5.781" transform="translate(16.482 5.134)"/><path class="a" d="M24.214,24.868V7.147H22.09V27.516a13.854,13.854,0,0,1-.841,4.075c3-1.92,2.965-6.723,2.965-6.723" transform="translate(17.615 5.925)"/><path class="a" d="M25.815,27.11V6.192H23.68V30.124A13.924,13.924,0,0,1,22.6,34.471a10.633,10.633,0,0,0,3.212-7.362" transform="translate(18.737 5.133)"/><path class="a" d="M19.423,21.441V6.193H17.294v18s0,1.355-.073,1.871a5.748,5.748,0,0,0,2.2-4.622" transform="translate(14.276 5.134)"/></g></g></svg>